<svg width="101" height="30" viewBox="0 0 101 30" fill="none" xmlns="http://www.w3.org/2000/svg">
<rect width="101" height="30" rx="15" fill="#364B93"/>
<path d="M24.0235 21.5L29.7655 7.91H29.8735L35.6155 21.5H33.4195L29.2435 10.916L30.6295 9.998L25.9135 21.5H24.0235ZM27.5155 16.604H32.1595L32.8255 18.26H26.9395L27.5155 16.604ZM40.4297 21.68C39.7217 21.68 39.0857 21.518 38.5217 21.194C37.9577 20.858 37.5137 20.384 37.1897 19.772C36.8657 19.16 36.7037 18.446 36.7037 17.63C36.7037 16.79 36.8777 16.076 37.2257 15.488C37.5737 14.888 38.0417 14.432 38.6297 14.12C39.2297 13.796 39.9017 13.634 40.6457 13.634C41.2217 13.634 41.7677 13.754 42.2837 13.994C42.8117 14.222 43.2197 14.546 43.5077 14.966L43.4537 15.596V7.514H45.2897V21.5H43.4357V19.718L43.6337 20.204C43.2617 20.624 42.8057 20.978 42.2657 21.266C41.7257 21.542 41.1137 21.68 40.4297 21.68ZM41.0057 20.114C41.4257 20.114 41.7977 20.042 42.1217 19.898C42.4457 19.754 42.7217 19.55 42.9497 19.286C43.1777 19.01 43.3397 18.692 43.4357 18.332V16.82C43.3517 16.484 43.1897 16.19 42.9497 15.938C42.7217 15.674 42.4397 15.47 42.1037 15.326C41.7677 15.182 41.4017 15.11 41.0057 15.11C40.5617 15.11 40.1537 15.218 39.7817 15.434C39.4217 15.638 39.1277 15.926 38.8997 16.298C38.6837 16.67 38.5757 17.102 38.5757 17.594C38.5757 18.062 38.6837 18.488 38.8997 18.872C39.1277 19.256 39.4277 19.562 39.7997 19.79C40.1717 20.006 40.5737 20.114 41.0057 20.114ZM51.2051 21.68C50.4971 21.68 49.8611 21.518 49.2971 21.194C48.7331 20.858 48.2891 20.384 47.9651 19.772C47.6411 19.16 47.4791 18.446 47.4791 17.63C47.4791 16.79 47.6531 16.076 48.0011 15.488C48.3491 14.888 48.8171 14.432 49.4051 14.12C50.0051 13.796 50.6771 13.634 51.4211 13.634C51.9971 13.634 52.5431 13.754 53.0591 13.994C53.5871 14.222 53.9951 14.546 54.2831 14.966L54.2291 15.596V7.514H56.0651V21.5H54.2111V19.718L54.4091 20.204C54.0371 20.624 53.5811 20.978 53.0411 21.266C52.5011 21.542 51.8891 21.68 51.2051 21.68ZM51.7811 20.114C52.2011 20.114 52.5731 20.042 52.8971 19.898C53.2211 19.754 53.4971 19.55 53.7251 19.286C53.9531 19.01 54.1151 18.692 54.2111 18.332V16.82C54.1271 16.484 53.9651 16.19 53.7251 15.938C53.4971 15.674 53.2151 15.47 52.8791 15.326C52.5431 15.182 52.1771 15.11 51.7811 15.11C51.3371 15.11 50.9291 15.218 50.5571 15.434C50.1971 15.638 49.9031 15.926 49.6751 16.298C49.4591 16.67 49.3511 17.102 49.3511 17.594C49.3511 18.062 49.4591 18.488 49.6751 18.872C49.9031 19.256 50.2031 19.562 50.5751 19.79C50.9471 20.006 51.3491 20.114 51.7811 20.114Z" fill="white"/>
<path d="M72 7.5C67.8675 7.5 64.5 10.8675 64.5 15C64.5 19.1325 67.8675 22.5 72 22.5C76.1325 22.5 79.5 19.1325 79.5 15C79.5 10.8675 76.1325 7.5 72 7.5ZM75 15.5625H72.5625V18C72.5625 18.3075 72.3075 18.5625 72 18.5625C71.6925 18.5625 71.4375 18.3075 71.4375 18V15.5625H69C68.6925 15.5625 68.4375 15.3075 68.4375 15C68.4375 14.6925 68.6925 14.4375 69 14.4375H71.4375V12C71.4375 11.6925 71.6925 11.4375 72 11.4375C72.3075 11.4375 72.5625 11.6925 72.5625 12V14.4375H75C75.3075 14.4375 75.5625 14.6925 75.5625 15C75.5625 15.3075 75.3075 15.5625 75 15.5625Z" fill="white"/>
</svg>
