<svg width="25" height="26" viewBox="0 0 25 26" fill="none" xmlns="http://www.w3.org/2000/svg">
<path opacity="0.4" d="M18.7497 9.5002C18.7497 14.3378 14.5498 18.2504 9.37486 18.2504L8.21239 19.6504L7.52489 20.4755C6.9374 21.1755 5.81241 21.0255 5.42492 20.1879L3.74994 16.5004C1.47498 14.9003 0 12.3628 0 9.5002C0 4.66259 4.19994 0.75 9.37486 0.75C13.1498 0.75 16.4123 2.83756 17.8747 5.83763C18.4372 6.95016 18.7497 8.18767 18.7497 9.5002Z" fill="#292D32"/>
<path d="M25 14.3251C25 17.1876 23.525 19.7252 21.2501 21.3252L19.5751 25.0128C19.1876 25.8503 18.0626 26.0128 17.4751 25.3003L15.6251 23.0753C12.6002 23.0753 9.90024 21.7377 8.21277 19.6502L9.37525 18.2502C14.5502 18.2502 18.7501 14.3376 18.7501 9.49999C18.7501 8.18746 18.4376 6.94993 17.8751 5.8374C21.9626 6.77492 25 10.225 25 14.3251Z" fill="#292D32"/>
<path d="M12.4998 10.4378H6.24986C5.73737 10.4378 5.31238 10.0128 5.31238 9.50027C5.31238 8.98775 5.73737 8.56274 6.24986 8.56274H12.4998C13.0123 8.56274 13.4373 8.98775 13.4373 9.50027C13.4373 10.0128 13.0123 10.4378 12.4998 10.4378Z" fill="#292D32"/>
</svg>
