<svg width="35" height="36" viewBox="0 0 35 36" fill="none" xmlns="http://www.w3.org/2000/svg">
<path opacity="0.4" d="M17.5 35.5C27.1649 35.5 35 27.6651 35 18C35 8.33502 27.1649 0.5 17.5 0.5C7.83501 0.5 0 8.33502 0 18C0 27.6651 7.83501 35.5 17.5 35.5Z" fill="#292D32"/>
<path d="M17.5 9.12744C13.8775 9.12744 10.9375 12.0674 10.9375 15.6899C10.9375 19.2424 13.72 22.1299 17.4125 22.2349H17.57H17.6925H17.7275C21.2625 22.1124 24.045 19.2424 24.0625 15.6899C24.0625 12.0674 21.1225 9.12744 17.5 9.12744Z" fill="#292D32"/>
<path d="M29.3662 30.8625C26.2512 33.7325 22.0862 35.5 17.5012 35.5C12.9162 35.5 8.75123 33.7325 5.63623 30.8625C6.05623 29.27 7.19373 27.8175 8.85623 26.6975C13.6337 23.5125 21.4037 23.5125 26.1462 26.6975C27.8262 27.8175 28.9462 29.27 29.3662 30.8625Z" fill="#292D32"/>
</svg>
