<svg width="16" height="15" viewBox="0 0 16 15" fill="none" xmlns="http://www.w3.org/2000/svg">
<path d="M7.65186 14.3024C3.70962 14.3024 0.5 11.0931 0.5 7.1512C0.5 3.20932 3.70962 0 7.65186 0C11.5941 0 14.8037 3.20932 14.8037 7.1512C14.8037 11.0931 11.5941 14.3024 7.65186 14.3024ZM7.65186 1.04652C4.28176 1.04652 1.54661 3.78839 1.54661 7.1512C1.54661 10.514 4.28176 13.2559 7.65186 13.2559C11.022 13.2559 13.7571 10.514 13.7571 7.1512C13.7571 3.78839 11.022 1.04652 7.65186 1.04652Z" fill="#292D32"/>
<path d="M14.9784 14.9999C14.8459 14.9999 14.7133 14.9511 14.6086 14.8465L13.2132 13.4511C13.0108 13.2488 13.0108 12.9139 13.2132 12.7116C13.4155 12.5092 13.7504 12.5092 13.9528 12.7116L15.3483 14.1069C15.5506 14.3092 15.5506 14.6441 15.3483 14.8465C15.2436 14.9511 15.111 14.9999 14.9784 14.9999Z" fill="#292D32"/>
</svg>
