<svg width="25" height="26" viewBox="0 0 25 26" fill="none" xmlns="http://www.w3.org/2000/svg">
<path d="M24.4243 15.8625L22.7992 13.7875C22.4579 13.325 22.1492 12.45 22.1492 11.9375V8.775C22.1492 5.8375 19.9065 3.3 16.6725 2.1125C15.8275 0.9625 14.2674 0.25 12.4798 0.25C10.7084 0.25 9.11586 0.9875 8.27081 2.15C5.10185 3.3625 2.90796 5.875 2.90796 8.775V11.9375C2.90796 12.45 2.59919 13.325 2.25792 13.775L0.616558 15.8625C-0.0334841 16.7 -0.179743 17.625 0.226533 18.475C0.616559 19.3125 1.54287 19.9625 2.74545 20.275C5.89815 21.1 9.21337 21.5 12.5285 21.5C15.8437 21.5 19.159 21.1 22.3117 20.2875C23.4492 20 24.3268 19.3375 24.7493 18.475C25.1719 17.6125 25.0581 16.6625 24.4243 15.8625Z" fill="#292D32"/>
<path d="M17.0947 22.7625C16.4122 24.2125 14.6083 25.25 12.4957 25.25C11.2118 25.25 9.94424 24.85 9.05042 24.1375C8.53038 23.7625 8.14036 23.2625 7.91284 22.75C8.12411 22.775 8.33537 22.7875 8.56288 22.8125C8.93666 22.85 9.3267 22.8875 9.71672 22.9125C10.643 22.975 11.5856 23.0125 12.5282 23.0125C13.4545 23.0125 14.3808 22.975 15.2908 22.9125C15.6321 22.8875 15.9734 22.875 16.2984 22.8375C16.5584 22.8125 16.8184 22.7875 17.0947 22.7625Z" fill="#292D32"/>
</svg>
